<svg width="85" height="83" viewBox="0 0 85 83" fill="none" xmlns="http://www.w3.org/2000/svg">
<path d="M25.8774 40.9725C18.6892 37.3784 13.8372 30.1903 13.8372 21.5645C13.8372 9.70402 23.5412 0 35.4017 0C47.2622 0 56.9662 9.70402 56.9662 21.5645C56.9662 33.2452 47.8013 42.7696 36.1205 43.129H35.9408C18.1501 43.129 3.59408 57.685 3.59408 75.4757C3.59408 76.5539 2.87526 77.2727 1.79704 77.2727C0.718816 77.2727 0 76.5539 0 75.4757C0 59.1226 10.9619 45.2854 25.8774 40.9725ZM35.4017 39.5349C45.2854 39.5349 53.3721 31.4482 53.3721 21.5645C53.3721 11.6808 45.2854 3.59408 35.4017 3.59408C25.518 3.59408 17.4313 11.6808 17.4313 21.5645C17.4313 31.4482 25.518 39.5349 35.4017 39.5349ZM84.6406 51.3953L85 52.2939L80.6871 57.5053C79.9683 58.4038 79.9683 59.8414 80.6871 60.74L85 65.7717L84.6406 66.6702C83.7421 69.186 82.4841 71.7019 80.6871 73.6786L79.9683 74.3975L73.3192 73.3192C72.241 73.1395 70.9831 73.8583 70.6237 74.9366L68.2875 81.4059L67.389 81.5856C63.9746 82.3044 60.5603 82.3044 57.1459 81.5856L56.0677 81.4059L53.9112 75.1163C53.5518 74.038 52.2939 73.3192 51.2156 73.4989L44.3869 74.5772L43.6681 73.8583C42.7696 72.9598 42.0507 71.8816 41.5116 70.8034C40.7928 69.5454 40.074 68.1078 39.7146 66.6702L39.3552 65.7717L43.8478 60.74C44.5666 59.8414 44.5666 58.4038 43.8478 57.685L39.5349 52.4736L39.8943 51.5751C40.7928 48.8795 42.2304 46.5433 44.0275 44.3869L44.7463 43.6681L51.2156 44.7463C52.2939 44.926 53.5518 44.2072 54.0909 43.129L56.4271 36.8393L57.3256 36.6596C60.5603 35.9408 63.9746 35.9408 67.389 36.6596L68.4672 36.8393L70.6237 42.9493C70.9831 44.0275 72.241 44.926 73.4989 44.7463L80.148 43.8478L80.8668 44.5666C81.7653 45.6448 82.4841 46.5433 83.0233 47.8013C83.5624 48.6998 84.1015 50.1374 84.6406 51.3953ZM79.6089 49.2389C79.2495 48.5201 78.8901 47.981 78.351 47.2621L73.6786 47.8013C70.8034 48.1607 67.9281 46.3636 67.0296 43.6681L65.592 39.5349C63.4355 39.1755 61.2791 39.1755 59.1226 39.5349L57.5053 43.8478C56.6068 46.5433 53.5518 48.3404 50.6765 47.8013L46.1839 47.0825C45.1057 48.3404 44.3869 49.9577 43.6681 51.3953L46.723 54.9894C48.5201 57.1459 48.5201 60.5602 46.723 62.7167L43.6681 66.3108C44.0275 67.2093 44.3869 67.9281 44.926 68.8266C45.2854 69.5454 45.6448 70.0846 46.1839 70.6237L51.0359 69.9049C53.9112 69.5454 56.7865 71.3425 57.685 74.0381L59.1226 78.3509C61.2791 78.7104 63.6152 78.7104 65.7717 78.3509L67.389 73.8583C68.2875 71.1628 71.3425 69.3657 74.0381 69.9049L78.5307 70.6237C79.4292 69.3657 80.3277 67.9281 80.8668 66.3108L77.9915 62.8964C76.1945 60.74 76.0148 57.3256 77.8118 55.1691L80.8668 51.5751C80.5074 50.8562 80.148 50.1374 79.6089 49.2389ZM62.3573 67.2093C57.8647 67.2093 54.2706 63.6152 54.2706 59.1226C54.2706 54.63 57.8647 51.0359 62.3573 51.0359C66.8499 51.0359 70.444 54.63 70.444 59.1226C70.444 63.6152 66.6702 67.2093 62.3573 67.2093ZM62.3573 63.6152C64.8731 63.6152 66.8499 61.6385 66.8499 59.1226C66.8499 56.6068 64.8731 54.63 62.3573 54.63C59.8414 54.63 57.8647 56.6068 57.8647 59.1226C57.8647 61.6385 59.8414 63.6152 62.3573 63.6152Z" fill="#F25959"/>
</svg>
