<svg width="300" height="300" viewBox="0 0 300 300" fill="none" xmlns="http://www.w3.org/2000/svg">
<path d="M54.4336 40.0845C50.5982 40.0845 46.9914 41.578 44.2787 44.2907C38.6804 49.8896 38.6804 59.0009 44.2793 64.6005C46.992 67.3125 50.5982 68.806 54.4342 68.8067C58.2696 68.806 61.8758 67.3125 64.5891 64.5998C70.1874 59.0009 70.1874 49.8896 64.5885 44.29C61.8758 41.578 58.2696 40.0838 54.4336 40.0845ZM57.819 57.8297C56.9146 58.7341 55.7121 59.232 54.4336 59.232C53.1545 59.232 51.952 58.7341 51.0482 57.8303C49.1819 55.9634 49.1819 52.9259 51.0476 51.0602C51.952 50.1558 53.1545 49.6585 54.4336 49.6585C55.7121 49.6585 56.9146 50.1558 57.8183 51.0595C59.6847 52.9265 59.6847 55.964 57.819 57.8297Z" fill="#3D7B5C"/>
<path d="M255.71 255.721C261.309 250.122 261.309 241.011 255.71 235.412C252.997 232.7 249.391 231.206 245.555 231.206C241.719 231.206 238.113 232.7 235.4 235.412C229.802 241.011 229.802 250.122 235.4 255.722C238.113 258.434 241.719 259.928 245.555 259.928C249.391 259.928 252.997 258.434 255.71 255.721ZM242.17 242.182C243.074 241.278 244.277 240.781 245.556 240.781C246.834 240.781 248.037 241.278 248.941 242.182C250.807 244.049 250.807 247.086 248.941 248.952C248.037 249.856 246.834 250.354 245.556 250.354C244.277 250.354 243.074 249.856 242.171 248.953C240.304 247.086 240.304 244.048 242.17 242.182Z" fill="#3D7B5C"/>
<path d="M81.1669 146.622C82.1019 147.556 83.3274 148.023 84.5522 148.023C85.7771 148.023 87.0026 147.556 87.9376 146.622C89.8071 144.752 89.8071 141.721 87.9376 139.852L11.557 63.4715L63.4593 11.5692L97.3081 45.4187L82.64 60.0861C80.7705 61.9563 80.7705 64.9868 82.64 66.8563C83.5751 67.7907 84.8005 68.2579 86.0254 68.2579C87.2502 68.2579 88.4757 67.7907 89.4108 66.8563L104.079 52.1888L116.881 64.9912L102.213 79.6587C100.344 81.5289 100.344 84.5594 102.213 86.4289C103.148 87.3633 104.374 87.8305 105.599 87.8305C106.823 87.8305 108.049 87.3633 108.984 86.4289L123.651 71.7614L136.454 84.5638L121.786 99.2313C119.917 101.101 119.917 104.132 121.786 106.001C122.721 106.936 123.947 107.403 125.172 107.403C126.397 107.403 127.622 106.936 128.557 106.001L146.61 87.9486C148.48 86.0784 148.48 83.0479 146.61 81.1784L66.8447 1.41434C64.9746 -0.454519 61.9441 -0.454519 60.0746 1.41434L1.40212 60.0868C-0.467374 61.9569 -0.467374 64.9874 1.40212 66.8569L81.1669 146.622Z" fill="#5AB487"/>
<path d="M218.822 153.39C216.952 151.522 213.922 151.522 212.052 153.39L193.999 171.443C192.13 173.313 192.13 176.344 193.999 178.213C194.934 179.148 196.16 179.615 197.385 179.615C198.609 179.615 199.835 179.148 200.77 178.213L215.437 163.546L228.24 176.348L213.572 191.016C211.703 192.886 211.703 195.916 213.572 197.786C214.508 198.72 215.733 199.188 216.958 199.188C218.183 199.188 219.408 198.72 220.343 197.786L235.011 183.119L247.813 195.921L233.145 210.588C231.276 212.459 231.276 215.489 233.145 217.359C234.08 218.293 235.306 218.76 236.53 218.76C237.755 218.76 238.981 218.293 239.916 217.359L254.584 202.691L288.433 236.54L236.531 288.442L160.15 212.063C158.28 210.194 155.249 210.194 153.38 212.063C151.51 213.933 151.51 216.963 153.38 218.833L233.144 298.598C234.079 299.532 235.305 299.999 236.53 299.999C237.755 299.999 238.98 299.532 239.915 298.598L298.588 239.925C300.457 238.055 300.457 235.025 298.588 233.155L218.822 153.39Z" fill="#5AB487"/>
<path d="M253.61 98.293C253.621 98.2827 293.001 58.9014 293.001 58.9014C302.333 49.5693 302.333 34.3841 293.001 25.052L274.948 6.99912C265.616 -2.33176 250.432 -2.33432 241.098 6.99912L232.071 16.0268C230.201 17.897 230.201 20.9275 232.071 22.797C233.941 24.6658 236.971 24.6658 238.841 22.797L247.868 13.7693C253.467 8.17035 262.578 8.17035 268.178 13.7693L286.231 31.8221C291.829 37.421 291.829 46.5324 286.231 52.1313L267.049 71.3132L225.302 29.5658C223.432 27.697 220.401 27.697 218.532 29.5658L201.718 46.3792C201.707 46.3907 32.9952 215.102 32.9952 215.102C32.9857 215.112 32.978 215.122 32.9684 215.132C32.9282 215.173 32.8912 215.217 32.8529 215.26C32.4751 215.673 32.168 216.146 31.9542 216.665L13.5261 261.418C13.5197 261.433 13.5133 261.448 13.5076 261.463L0.360449 293.391C-0.374839 295.178 0.0355688 297.232 1.40211 298.598C2.31866 299.514 3.54287 300 4.78877 300C5.40215 300 6.02064 299.882 6.6104 299.64L38.5412 286.492C38.5533 286.487 38.5654 286.481 38.5782 286.477L83.3363 268.047C83.8578 267.832 84.3327 267.523 84.7475 267.142C84.7878 267.106 84.8286 267.072 84.8675 267.034C84.8778 267.024 84.8892 267.015 84.8995 267.005L253.61 98.293ZM83.1634 255.199C81.8753 253.002 80.2982 250.954 78.4631 249.118C74.7101 245.365 70.1579 242.752 65.3339 241.437L190.43 116.341C192.299 114.471 192.299 111.441 190.43 109.571C188.56 107.702 185.529 107.702 183.66 109.571L58.5637 234.667C57.2489 229.842 54.6352 225.29 50.8822 221.537C49.0465 219.702 46.9989 218.125 44.8007 216.837L205.098 56.5405L220.894 72.3364L201.713 91.5177C199.843 93.3879 199.843 96.4184 201.713 98.2879C202.648 99.2223 203.873 99.6895 205.098 99.6895C206.323 99.6895 207.548 99.2223 208.483 98.2879L227.665 79.1065L243.461 94.9025L83.1634 255.199ZM37.885 276.408L23.5929 262.116L39.0429 224.595C40.8862 225.55 42.6019 226.797 44.112 228.308C48.6361 232.831 50.7322 238.974 49.7186 244.738C49.448 246.275 49.9445 247.848 51.0481 248.952C52.1517 250.056 53.725 250.553 55.2626 250.282C61.0275 249.268 67.1696 251.365 71.693 255.888C73.2038 257.399 74.4503 259.114 75.4052 260.958L37.885 276.408ZM221.917 39.7207L260.28 78.0834L250.23 88.1323L211.868 49.7697L221.917 39.7207ZM19.6433 271.707L28.2931 280.357L13.588 286.412L19.6433 271.707Z" fill="#FF5A5C"/>
</svg>
