<svg width="50" height="50" viewBox="0 0 50 50" fill="none" xmlns="http://www.w3.org/2000/svg">
<path opacity="0.995" d="M8.98711 0H41.0129C45.9763 0 50 4.02366 50 8.98711V41.0129C50 45.9763 45.9763 50 41.0129 50H8.98711C4.02366 50 0 45.9763 0 41.0129V8.98711C0 4.02366 4.02366 0 8.98711 0Z" fill="url(#paint0_linear_11_48)"/>
<path opacity="0.995" d="M25.8274 17.2354C25.8274 14.5346 31.2727 12.5675 34.1607 12.4471C42.8051 12.0867 46.6606 12.9175 46.6606 13.8187V36.8233C46.5765 38.3482 42.5541 37.1918 36.2161 37.0103C30.7881 36.8549 25.8274 39.0598 25.8274 37.5733V17.2354Z" fill="url(#paint1_linear_11_48)"/>
<path opacity="0.995" d="M25.8274 15.4021C25.8274 12.7013 30.8371 10.7343 33.4941 10.6138C41.4469 10.2534 44.9941 11.0842 44.9941 11.9855V36.24C44.9941 37.3019 41.2184 36.2603 35.385 36.2603C29.9254 36.2603 25.8274 39.0641 25.8274 37.1567V15.4021Z" fill="url(#paint2_linear_11_48)"/>
<path opacity="0.995" d="M24.1606 17.2355C24.1606 14.5346 18.7153 12.5676 15.8272 12.4471C7.18286 12.0867 3.32727 12.9175 3.32727 13.8188V36.8233C3.41145 38.3483 7.43381 37.1918 13.7719 37.0103C19.1998 36.8549 24.1606 39.0598 24.1606 37.5733V17.2355Z" fill="url(#paint3_linear_11_48)"/>
<path opacity="0.995" d="M24.1606 15.4022C24.1606 12.7013 19.1509 10.7343 16.4939 10.6139C8.5411 10.2534 4.99396 11.0843 4.99396 11.9855V36.24C4.99396 37.302 8.76959 36.177 14.603 36.177C20.0626 36.177 24.1606 39.0641 24.1606 37.1567V15.4022Z" fill="url(#paint4_linear_11_48)"/>
<path opacity="0.995" d="M40.2472 27.315C40.163 30.8462 37.1145 31.9191 35.4107 31.8519C32.0694 31.72 30.5742 28.4775 30.5742 24.315C30.5742 20.1526 32.0241 16.7361 35.4107 16.7782C36.9453 16.7973 40.2051 17.5726 40.2472 21.3984" stroke="white" stroke-width="2" stroke-linecap="round" stroke-linejoin="bevel"/>
<path d="M32.7625 30.9723L34.7268 16.9842" stroke="#FEFFFF" stroke-width="2"/>
<g opacity="0.5">
<path opacity="0.995" d="M40.6638 27.815C40.5796 31.3462 37.5311 32.4191 35.8273 32.3519C32.486 32.22 30.9908 28.9775 30.9908 24.815C30.9908 20.6526 32.4407 17.2361 35.8273 17.2782C37.3619 17.2973 40.6217 18.0726 40.6638 21.8984" stroke="white" stroke-width="3" stroke-linecap="round" stroke-linejoin="bevel"/>
<path opacity="0.5" d="M33.1792 31.4723L35.1435 17.4842" stroke="#FEFFFF" stroke-width="3"/>
</g>
<path d="M19.3362 16.7837H9.75842V24.3108V31.8379H19.396" stroke="white" stroke-width="2" stroke-linecap="round" stroke-linejoin="bevel"/>
<path d="M10.3121 24.3108H17.5091" stroke="white" stroke-width="2" stroke-linecap="round"/>
<path d="M9.81921 31.7913L13.2457 24.3679" stroke="white" stroke-width="2" stroke-linejoin="round"/>
<path d="M10.3121 24.3108L13.7386 16.8874" stroke="white" stroke-width="2" stroke-linejoin="round"/>
<g opacity="0.5">
<path opacity="0.5" d="M19.7528 17.117H10.175V24.6441V32.1712H19.8127" stroke="white" stroke-width="3" stroke-linecap="round" stroke-linejoin="bevel"/>
<path opacity="0.5" d="M10.7287 24.6441H17.9257" stroke="white" stroke-width="3" stroke-linecap="round"/>
<path opacity="0.5" d="M10.2358 32.1246L13.6623 24.7012" stroke="white" stroke-width="3" stroke-linejoin="round"/>
<path opacity="0.5" d="M10.7287 24.6441L14.1552 17.2207" stroke="white" stroke-width="3" stroke-linejoin="round"/>
</g>
<defs>
<linearGradient id="paint0_linear_11_48" x1="22.5601" y1="0.589255" x2="25.8431" y2="37.2915" gradientUnits="userSpaceOnUse">
<stop stop-color="#FF5A5C"/>
<stop offset="1" stop-color="#FF3336"/>
</linearGradient>
<linearGradient id="paint1_linear_11_48" x1="45.9513" y1="24.2952" x2="37.4695" y2="13.6439" gradientUnits="userSpaceOnUse">
<stop stop-color="#DF6666"/>
<stop offset="1" stop-color="#F25959"/>
</linearGradient>
<linearGradient id="paint2_linear_11_48" x1="44.2319" y1="23.3548" x2="37.3727" y2="22.4313" gradientUnits="userSpaceOnUse">
<stop stop-color="#DF7E7E"/>
<stop offset="1" stop-color="#F25959"/>
</linearGradient>
<linearGradient id="paint3_linear_11_48" x1="4.03664" y1="24.2952" x2="12.5184" y2="13.644" gradientUnits="userSpaceOnUse">
<stop stop-color="#DF6666"/>
<stop offset="1" stop-color="#F25959"/>
</linearGradient>
<linearGradient id="paint4_linear_11_48" x1="5.7561" y1="23.3548" x2="12.6153" y2="22.4313" gradientUnits="userSpaceOnUse">
<stop stop-color="#DF7E7E"/>
<stop offset="1" stop-color="#F25959"/>
</linearGradient>
</defs>
</svg>
