<svg width="22" height="22" viewBox="0 0 22 22" fill="none" xmlns="http://www.w3.org/2000/svg">
<path d="M18.7782 3.22184C16.7006 1.14417 13.9382 0 11 0C8.0618 0 5.29942 1.14417 3.22184 3.22184C1.14421 5.29947 0 8.0618 0 11C0 13.9382 1.14417 16.7006 3.22184 18.7782C5.29947 20.8558 8.0618 22 11 22C13.9382 22 16.7006 20.8558 18.7782 18.7782C20.8558 16.7005 22 13.9382 22 11C22 8.0618 20.8558 5.29942 18.7782 3.22184ZM11 21.102C5.42975 21.102 0.897961 16.5703 0.897961 11C0.897961 5.42975 5.42975 0.897961 11 0.897961C16.5703 0.897961 21.102 5.42975 21.102 11C21.102 16.5703 16.5703 21.102 11 21.102Z" fill="url(#paint0_linear_232_34)"/>
<path d="M11 1.7959C5.92481 1.7959 1.7959 5.92481 1.7959 11C1.7959 16.0751 5.92481 20.2041 11 20.2041C16.0751 20.2041 20.2041 16.0751 20.2041 11C20.2041 5.92481 16.0751 1.7959 11 1.7959ZM11 19.3061C6.41998 19.3061 2.69386 15.58 2.69386 11C2.69386 6.41998 6.41998 2.69386 11 2.69386C15.58 2.69386 19.3061 6.41998 19.3061 11C19.3061 15.58 15.58 19.3061 11 19.3061Z" fill="url(#paint1_linear_232_34)"/>
<path d="M17.9496 8.80523C17.8247 8.4443 17.5234 8.18227 17.1455 8.12736L13.5163 7.6L11.8932 4.31135C11.7242 3.96884 11.3819 3.7561 11 3.7561C10.6181 3.7561 10.2758 3.96884 10.1068 4.3113L8.48375 7.59996L4.85452 8.12731C4.47657 8.18223 4.16848 8.44197 4.05045 8.80519C3.93246 9.1684 4.02905 9.55964 4.3025 9.82626L6.92863 12.3861L6.30867 16.0007C6.24409 16.3771 6.39594 16.7504 6.70493 16.9749C6.87956 17.1017 7.08379 17.1661 7.28948 17.1661C7.44773 17.1661 7.60689 17.1279 7.75388 17.0507L11 15.3442L14.2461 17.0508C14.5841 17.2285 14.986 17.1994 15.295 16.975C15.604 16.7505 15.7559 16.3772 15.6913 16.0008L15.0713 12.3862L17.6975 9.82634C17.8806 9.6503 18.1079 9.26306 17.9496 8.80523ZM6.85609 11.0615L7.72565 10.1919C7.90097 10.0166 7.90097 9.73228 7.72565 9.55693C7.55034 9.38157 7.26602 9.38162 7.09066 9.55693L6.21298 10.4346L4.92925 9.18331C4.90024 9.15508 4.89191 9.12122 4.90441 9.08273C4.91691 9.04427 4.94356 9.0218 4.9836 9.01595L8.84641 8.45465C8.99263 8.43342 9.11909 8.34156 9.18444 8.20904L10.912 4.70872C10.9299 4.67246 10.9595 4.65406 11 4.65406C11.0404 4.65406 11.07 4.67246 11.0879 4.70876L12.4183 7.40445L7.80575 12.0171C7.78439 11.9773 7.75762 11.9402 7.72449 11.9079L6.85609 11.0615ZM14.7672 16.2485C14.7345 16.2723 14.6997 16.2747 14.6639 16.2559L12.3846 15.0576L14.2915 13.1508L14.8063 16.1525C14.8131 16.1924 14.8 16.2247 14.7672 16.2485ZM11.5522 14.62L11.2089 14.4395C11.0781 14.3707 10.9219 14.3707 10.7911 14.4395L7.33606 16.256C7.30026 16.2748 7.2655 16.2723 7.23276 16.2485C7.20002 16.2247 7.18691 16.1924 7.19374 16.1525L7.6603 13.4325L12.8403 8.25248C12.9101 8.36141 13.0239 8.43583 13.1536 8.45469L14.3663 8.63091L9.76216 13.235C9.58684 13.4103 9.58684 13.6946 9.76216 13.87C9.84986 13.9577 9.96475 14.0015 10.0796 14.0015C10.1945 14.0015 10.3095 13.9576 10.3971 13.87L15.475 8.79204L17.0163 9.01599C17.0548 9.02162 17.0805 9.04294 17.0936 9.07869L11.5522 14.62Z" fill="url(#paint2_linear_232_34)"/>
<defs>
<linearGradient id="paint0_linear_232_34" x1="11" y1="4.4" x2="14.025" y2="20.9" gradientUnits="userSpaceOnUse">
<stop stop-color="#FFE455"/>
<stop offset="1" stop-color="#FFD807"/>
</linearGradient>
<linearGradient id="paint1_linear_232_34" x1="11" y1="5.47753" x2="13.5311" y2="19.2836" gradientUnits="userSpaceOnUse">
<stop stop-color="#FFE455"/>
<stop offset="1" stop-color="#FFD807"/>
</linearGradient>
<linearGradient id="paint2_linear_232_34" x1="11.0019" y1="6.43814" x2="12.7727" y2="16.5229" gradientUnits="userSpaceOnUse">
<stop stop-color="#FFE455"/>
<stop offset="1" stop-color="#FFD807"/>
</linearGradient>
</defs>
</svg>
