<svg width="35" height="38" viewBox="0 0 35 38" fill="none" xmlns="http://www.w3.org/2000/svg">
<path d="M3.99583 14.4068C3.6741 14.7299 3.47419 15.1545 3.43007 15.6083C3.38595 16.0621 3.50035 16.5172 3.75381 16.8963C4.00728 17.2753 4.38418 17.5549 4.82045 17.6875C5.25673 17.8201 5.72546 17.7975 6.14698 17.6236C6.38682 17.5163 6.60697 17.3696 6.79824 17.1894C6.97576 17.0076 7.11649 16.7931 7.21268 16.5579C7.3255 16.3175 7.37961 16.0537 7.37056 15.7882C7.36838 15.2705 7.16284 14.7744 6.79824 14.4068C6.61478 14.2218 6.3965 14.075 6.15601 13.9748C5.91551 13.8746 5.65756 13.823 5.39703 13.823C5.1365 13.823 4.87855 13.8746 4.63806 13.9748C4.39757 14.075 4.17929 14.2218 3.99583 14.4068ZM5.39703 3.94706C5.92045 3.94706 6.42242 4.15498 6.79253 4.52509C7.16264 4.8952 7.37056 5.39718 7.37056 5.92059C7.37056 6.444 7.16264 6.94598 6.79253 7.31609C6.42242 7.68619 5.92045 7.89412 5.39703 7.89412C4.87362 7.89412 4.37165 8.10205 4.00154 8.47215C3.63143 8.84226 3.4235 9.34424 3.4235 9.86765C3.4235 10.3911 3.63143 10.893 4.00154 11.2631C4.37165 11.6333 4.87362 11.8412 5.39703 11.8412C6.43615 11.8405 7.4568 11.5664 8.35641 11.0463C9.25602 10.5262 10.0029 9.77857 10.522 8.87842C11.0412 7.97827 11.3142 6.95734 11.3138 5.91822C11.3134 4.8791 11.0395 3.85839 10.5197 2.95865C9.99982 2.05891 9.25233 1.31184 8.3523 0.792497C7.45227 0.273154 6.43141 -0.000166357 5.39229 7.59642e-08C4.35317 0.000166509 3.33239 0.273813 2.43253 0.793445C1.53267 1.31308 0.785416 2.06039 0.265856 2.96029C0.135368 3.18554 0.05073 3.43438 0.0168182 3.69247C-0.0170936 3.95057 0.000389816 4.21282 0.0682618 4.46413C0.136134 4.71544 0.253053 4.95084 0.412286 5.15677C0.571519 5.3627 0.76992 5.5351 0.996061 5.66403C1.44922 5.92132 1.98574 5.98895 2.48857 5.85215C2.9914 5.71535 3.41972 5.38523 3.68006 4.93382C3.85394 4.63265 4.10431 4.38278 4.40582 4.2095C4.70733 4.03621 5.04928 3.94568 5.39703 3.94706ZM29.0794 5.92059H17.2382C16.7148 5.92059 16.2128 6.12851 15.8427 6.49862C15.4726 6.86873 15.2647 7.37071 15.2647 7.89412C15.2647 8.41753 15.4726 8.91951 15.8427 9.28962C16.2128 9.65972 16.7148 9.86765 17.2382 9.86765H29.0794C29.6028 9.86765 30.1048 10.0756 30.4749 10.4457C30.845 10.8158 31.0529 11.3178 31.0529 11.8412V31.0239L27.9545 28.1623C27.5905 27.8215 27.1111 27.6311 26.6125 27.6294H9.3441C8.82068 27.6294 8.31871 27.4215 7.9486 27.0514C7.57849 26.6813 7.37056 26.1793 7.37056 25.6559V23.6824C7.37056 23.1589 7.16264 22.657 6.79253 22.2869C6.42242 21.9168 5.92045 21.7088 5.39703 21.7088C4.87362 21.7088 4.37165 21.9168 4.00154 22.2869C3.63143 22.657 3.4235 23.1589 3.4235 23.6824V25.6559C3.4235 27.2261 4.04728 28.7321 5.1576 29.8424C6.26793 30.9527 7.77386 31.5765 9.3441 31.5765H25.8428L31.7634 36.9642C32.1072 37.2871 32.5553 37.4761 33.0265 37.4971C33.2971 37.4941 33.5649 37.4406 33.8159 37.3392C34.1689 37.1851 34.4691 36.9311 34.6795 36.6085C34.8899 36.2859 35.0013 35.9087 35 35.5235V11.8412C35 10.2709 34.3762 8.76502 33.2659 7.65469C32.1556 6.54436 30.6496 5.92059 29.0794 5.92059Z" fill="#1E4532"/>
</svg>
