<svg width="33" height="39" viewBox="0 0 33 39" fill="none" xmlns="http://www.w3.org/2000/svg">
<path d="M32 6V4C32 2.34315 30.6569 1 29 1V1M29 1C28.3201 1 26.6305 1 26 1L21 1C15.7814 1 9.99672 1 5.99671 1C3.23528 1 1 3.23858 1 6V36.9733C1 37.8022 1.95059 38.2712 2.60843 37.7669L12.3916 30.2665C12.7505 29.9913 13.2495 29.9913 13.6084 30.2665L23.4202 37.7888C24.0728 38.2891 25.0165 37.8417 25.0282 37.0195C25.1184 30.6753 25.3937 11.1724 25.3937 9.5C25.3937 7.5 25 3.5 29 1Z" stroke="#4E3636"/>
</svg>
