<?xml version="1.0" encoding="utf-8"?><svg viewBox="0 0 25 25" xmlns="http://www.w3.org/2000/svg" xmlns:xlink="http://www.w3.org/1999/xlink"><style>:root>svg{display:none}:root>svg:target{display:block}</style><svg fill="none" viewBox="0 0 19 15" id="Random" xmlns="http://www.w3.org/2000/svg"><path fill-rule="evenodd" clip-rule="evenodd" d="M17.164 2.015L14.926.513 15.453 0 19 2.384l-3.544 2.389-.526-.514 2.33-1.562h-3.297c-2.81.029-4.12 2.321-5.475 4.788 1.355 2.466 2.666 4.758 5.475 4.788h3.247l-2.284-1.532.527-.514L19 12.612 15.456 15l-.526-.513 2.284-1.533h-3.255c-3.086-.032-4.582-2.296-5.91-4.675-1.336 2.393-2.845 4.665-5.971 4.675H0v-.681h2.076c2.851-.01 4.173-2.31 5.535-4.788-1.362-2.48-2.684-4.779-5.535-4.788H0v-.682h2.078c3.126.01 4.635 2.283 5.97 4.676 1.33-2.38 2.825-4.644 5.91-4.676h3.206z" fill="#F68888"/></svg><svg fill="none" viewBox="0 0 25 25" id="Search" xmlns="http://www.w3.org/2000/svg"><path d="M10 0C4.489 0 0 4.489 0 10s4.489 10 10 10a9.947 9.947 0 006.322-2.264l5.971 5.971a1 1 0 101.414-1.414l-5.97-5.97A9.947 9.947 0 0020 10c0-5.511-4.489-10-10-10zm0 2c4.43 0 8 3.57 8 8s-3.57 8-8 8-8-3.57-8-8 3.57-8 8-8z" fill="#fff"/></svg></svg>