<?xml version="1.0" encoding="utf-8"?><svg viewBox="0 0 33 39" xmlns="http://www.w3.org/2000/svg" xmlns:xlink="http://www.w3.org/1999/xlink"><style>:root>svg{display:none}:root>svg:target{display:block}</style><svg fill="none" viewBox="0 0 25 25" id="Search" xmlns="http://www.w3.org/2000/svg"><path d="M10 0C4.489 0 0 4.489 0 10s4.489 10 10 10a9.947 9.947 0 006.322-2.264l5.971 5.971a1 1 0 101.414-1.414l-5.97-5.97A9.947 9.947 0 0020 10c0-5.511-4.489-10-10-10zm0 2c4.43 0 8 3.57 8 8s-3.57 8-8 8-8-3.57-8-8 3.57-8 8-8z" fill="#fff"/></svg><svg fill="none" viewBox="0 0 11 6" id="Vector_(2)" xmlns="http://www.w3.org/2000/svg"><path d="M1.873 5.935l3.782-3.877L9.43 5.93 10.435 4.9l-4.78-4.9L.869 4.905l1.004 1.029z" fill="#4E3636"/></svg><svg fill="none" viewBox="0 0 33 39" id="Vector_2" xmlns="http://www.w3.org/2000/svg"><path d="M32 6V4a3 3 0 00-3-3v0m0 0H5.997A4.997 4.997 0 001 6v30.973a1 1 0 001.608.794l9.784-7.5a1 1 0 011.216 0l9.812 7.522c.653.5 1.596.053 1.608-.77.09-6.344.366-25.847.366-27.519 0-2-.394-6 3.606-8.5z" stroke="#4E3636"/></svg></svg>